HIERARCHY
ROOT Hips
{
	OFFSET 0.000000 0.000000 0.000000
	CHANNELS 6 Xposition Yposition Zposition Zrotation Yrotation Xrotation 
	JOINT LHipJoint
	{
		OFFSET 0.000000 0.000000 0.000000
		CHANNELS 3 Zrotation Yrotation Xrotation
		JOINT LeftUpLeg
		{
			OFFSET 1.363060 -1.794630 0.839290
			CHANNELS 3 Zrotation Yrotation Xrotation
			JOINT LeftLeg
			{
				OFFSET 2.448110 -6.726130 0.000000
				CHANNELS 3 Zrotation Yrotation Xrotation
				JOINT LeftFoot
				{
					OFFSET 2.562200 -7.039590 0.000000
					CHANNELS 3 Zrotation Yrotation Xrotation
					JOINT LeftToeBase
					{
						OFFSET 0.157640 -0.433110 2.322550
						CHANNELS 3 Zrotation Yrotation Xrotation
						End Site
						{
							OFFSET 0.000000 0.000000 0.000000
						}
					}
				}
			}
		}
	}
	JOINT RHipJoint
	{
		OFFSET 0.000000 0.000000 0.000000
		CHANNELS 3 Zrotation Yrotation Xrotation
		JOINT RightUpLeg
		{
			OFFSET -1.305520 -1.794630 0.839290
			CHANNELS 3 Zrotation Yrotation Xrotation
			JOINT RightLeg
			{
				OFFSET -2.542530 -6.985550 0.000000
				CHANNELS 3 Zrotation Yrotation Xrotation
				JOINT RightFoot
				{
					OFFSET -2.568260 -7.056230 0.000000
					CHANNELS 3 Zrotation Yrotation Xrotation
					JOINT RightToeBase
					{
						OFFSET -0.164730 -0.452590 2.363150
						CHANNELS 3 Zrotation Yrotation Xrotation
						End Site
						{
							OFFSET 0.000000 0.000000 0.000000
						}
					}
				}
			}
		}
	}
	JOINT LowerBack
	{
		OFFSET 0.000000 0.000000 0.000000
		CHANNELS 3 Zrotation Yrotation Xrotation
		JOINT Spine
		{
			OFFSET 0.028270 2.035590 -0.193380
			CHANNELS 3 Zrotation Yrotation Xrotation
			JOINT Spine1
			{
				OFFSET 0.056720 2.048850 -0.042750
				CHANNELS 3 Zrotation Yrotation Xrotation
				JOINT Neck
				{
					OFFSET 0.000000 0.000000 0.000000
					CHANNELS 3 Zrotation Yrotation Xrotation
					JOINT Neck1
					{
						OFFSET -0.054170 1.746240 0.172020
						CHANNELS 3 Zrotation Yrotation Xrotation
						JOINT Head
						{
							OFFSET 0.104070 1.761360 -0.123970
							CHANNELS 3 Zrotation Yrotation Xrotation
							End Site
							{
								OFFSET 0.000000 0.000000 0.000000
							}
						}
					}
				}
				JOINT LeftShoulder
				{
					OFFSET 0.000000 0.000000 0.000000
					CHANNELS 3 Zrotation Yrotation Xrotation
					JOINT LeftArm
					{
						OFFSET 3.362410 1.200890 -0.311210
						CHANNELS 3 Zrotation Yrotation Xrotation
						JOINT LeftForeArm
						{
							OFFSET 4.983000 -0.000000 -0.000000
							CHANNELS 3 Zrotation Yrotation Xrotation
							JOINT LeftHand
							{
								OFFSET 3.483560 -0.000000 -0.000000
								CHANNELS 3 Zrotation Yrotation Xrotation
								JOINT LeftFingerBase
								{
									OFFSET 0.000000 0.000000 0.000000
									CHANNELS 3 Zrotation Yrotation Xrotation
									JOINT LeftHandIndex1
									{
										OFFSET 0.715260 -0.000000 -0.000000
										CHANNELS 3 Zrotation Yrotation Xrotation
										End Site
										{
											OFFSET 0.000000 0.000000 0.000000
										}
									}
								}
								JOINT LThumb
								{
									OFFSET 0.000000 0.000000 0.000000
									CHANNELS 3 Zrotation Yrotation Xrotation
									End Site
									{
										OFFSET 0.000000 0.000000 0.000000
									}
								}
							}
						}
					}
				}
				JOINT RightShoulder
				{
					OFFSET 0.000000 0.000000 0.000000
					CHANNELS 3 Zrotation Yrotation Xrotation
					JOINT RightArm
					{
						OFFSET -3.136600 1.374050 -0.404650
						CHANNELS 3 Zrotation Yrotation Xrotation
						JOINT RightForeArm
						{
							OFFSET -5.241900 -0.000000 -0.000000
							CHANNELS 3 Zrotation Yrotation Xrotation
							JOINT RightHand
							{
								OFFSET -3.444170 -0.000000 -0.000000
								CHANNELS 3 Zrotation Yrotation Xrotation
								JOINT RightFingerBase
								{
									OFFSET 0.000000 0.000000 0.000000
									CHANNELS 3 Zrotation Yrotation Xrotation
									JOINT RightHandIndex1
									{
										OFFSET -0.622530 -0.000000 -0.000000
										CHANNELS 3 Zrotation Yrotation Xrotation
										End Site
										{
											OFFSET 0.000000 0.000000 0.000000
										}
									}
								}
								JOINT RThumb
								{
									OFFSET 0.000000 0.000000 0.000000
									CHANNELS 3 Zrotation Yrotation Xrotation
									End Site
									{
										OFFSET 0.000000 0.000000 0.000000
									}
								}
							}
						}
					}
				}
			}
		}
	}
}
MOTION
Frames: 11
Frame Time: 0.008333
0.670204 21.759740 -7.091832 -0.298624 4.277929 4.037941 3.758111 3.081399 1.121389 -25.271711 -5.532949 -6.395027 5.149095 12.066659 39.404142 5.116317 3.302975 45.820306 0.014495 0.766879 2.107536 -5.704734 -3.725022 -0.010114 31.240724 6.117150 -0.843973 -5.569413 -11.391997 36.947014 -2.325804 -22.133231 38.228773 -1.531308 -7.812820 22.146914 0.531362 -0.141299 3.946087 1.817058 -0.540705 -0.519025 3.973253 0.166376 -2.628559 -7.623709 -3.285291 -10.067677 4.713826 -3.977003 22.052385 3.134256 -2.339544 11.661051 -3.804078 3.502610 -3.091004 -71.571605 37.690956 28.279883 75.778328 -62.570433 -53.748745 0.090104 -1.896494 -9.204201 22.473368 22.112092 9.699620 -7.125000 0.000000 0.000000 -7.188491 55.704040 -1.896572 1.895231 -2.719023 -1.690490 62.093934 -42.448065 44.444151 -82.105430 59.735245 -58.810257 1.219980 -0.703556 2.562241 -8.574068 17.567180 -3.088118 7.125000 0.000000 0.000000 11.936797 -11.860697 9.440777
0.656999 21.901219 -6.939777 -0.380863 4.238064 3.661527 3.785123 3.072676 1.110706 -25.417922 -5.335957 -6.937028 5.361573 12.323806 40.384471 4.995402 3.258365 45.244768 0.006281 0.504697 1.386711 -5.714237 -3.731767 -0.004851 31.456175 5.860189 -1.305436 -5.689418 -11.549539 37.497786 -2.061923 -23.024180 37.532459 -1.617444 -8.018751 22.771138 0.529879 -0.101431 4.098896 1.807973 -0.482218 -0.419056 3.954386 0.193025 -2.536596 -7.413193 -3.291126 -9.709645 4.538569 -4.030246 22.082748 3.020939 -2.365724 11.571671 -3.791091 3.500337 -3.084313 -71.325797 38.211064 27.368422 76.078547 -62.682651 -53.964366 0.138393 -1.906567 -9.064327 22.005379 23.182158 9.851042 -7.125000 0.000000 0.000000 -8.194459 56.720900 -2.368064 1.886815 -2.725586 -1.677203 62.096989 -42.791377 43.883392 -82.549972 59.806661 -59.172839 1.246673 -0.660749 1.546635 -9.006884 17.419756 -3.201737 7.125000 0.000000 0.000000 11.646971 -11.993683 9.168744
0.646839 22.037805 -6.784597 -0.427851 4.232327 3.418908 3.808408 3.063461 1.101278 -25.596615 -5.220551 -7.566705 5.549775 12.549518 41.212121 4.829493 3.573153 44.506772 0.002803 0.333018 0.914888 -5.724150 -3.740871 0.006402 31.565673 5.657316 -1.886195 -5.751648 -11.646813 37.824510 -1.727339 -23.760731 36.514354 -1.770594 -8.369143 23.841960 0.513543 -0.095477 4.179403 1.809295 -0.473549 -0.352504 3.962132 0.197295 -2.456311 -7.111537 -3.247463 -9.601484 4.210391 -4.001267 22.342660 2.834722 -2.362019 11.620910 -3.780341 3.490845 -3.088705 -71.189530 38.676165 26.486525 76.056121 -62.722274 -53.902517 0.165890 -1.936661 -9.392268 22.235307 24.105183 10.305676 -7.125000 0.000000 0.000000 -8.393453 57.756989 -2.633724 1.896768 -2.745686 -1.671633 61.914462 -42.809773 43.646008 -82.100519 59.757023 -58.776619 1.266549 -0.598791 0.385057 -9.431964 17.094773 -3.273849 7.125000 0.000000 0.000000 11.366594 -12.318104 8.860691
0.640584 22.166261 -6.634674 -0.513895 4.257322 3.222031 3.827654 3.056187 1.094062 -25.733635 -5.146903 -8.204702 5.707166 12.739071 41.888714 4.642943 4.014091 43.697389 0.004704 0.435182 1.195699 -5.735216 -3.749563 0.022167 31.674743 5.496896 -2.499875 -5.758657 -11.687782 37.954204 -1.337952 -24.217873 35.159439 -1.705659 -8.222743 23.393432 0.567519 -0.096597 4.282773 1.818742 -0.469733 -0.316803 3.951186 0.200383 -2.446338 -6.932103 -3.276037 -9.526954 3.989668 -4.063289 22.723814 2.704691 -2.401123 11.750736 -3.783489 3.488450 -3.095030 -71.005399 38.926229 25.836323 75.026002 -62.541359 -53.018703 0.159330 -1.981112 -9.833579 22.962357 24.434613 10.825629 -7.125000 0.000000 0.000000 -7.741090 58.314236 -2.528976 1.910117 -2.758932 -1.669140 61.749447 -42.835768 43.456405 -81.422728 59.671829 -58.221254 1.238106 -0.523482 -1.216260 -9.180394 16.274530 -3.034546 7.125000 0.000000 0.000000 11.568224 -13.189890 8.806915
0.633297 22.278105 -6.490835 -0.711310 4.241479 3.056990 3.843879 3.050161 1.087753 -25.733747 -5.057727 -8.885295 5.820415 12.889514 42.423571 4.378906 4.306887 42.537220 0.016045 0.788195 2.166297 -5.750157 -3.755418 0.044786 31.903871 5.420187 -3.118079 -5.726933 -11.691097 37.957629 -0.991193 -24.254707 33.753091 -1.394067 -7.450117 21.065231 0.745116 -0.081857 4.384532 1.839977 -0.437164 -0.299667 3.902635 0.216932 -2.481201 -6.927306 -3.417625 -9.362279 3.961914 -4.280862 23.089308 2.669028 -2.507261 11.885281 -3.798625 3.499787 -3.103340 -70.855356 39.012697 25.259212 73.390461 -62.208270 -51.625037 0.181469 -2.024857 -9.909831 23.073281 25.124088 11.148902 -7.125000 0.000000 0.000000 -7.996290 59.098357 -2.769640 1.924983 -2.760377 -1.664505 61.616463 -42.795204 43.292683 -80.435383 59.539128 -57.424209 1.164685 -0.452023 -2.820144 -8.354973 15.100163 -2.575972 7.125000 0.000000 0.000000 12.195157 -14.447043 8.970285
0.624071 22.372480 -6.346555 -0.866257 4.201120 2.926284 3.857410 3.045135 1.084770 -25.755278 -4.957807 -9.560392 5.888968 12.999157 42.813204 4.028463 4.472388 40.962112 0.018764 0.883538 2.428386 -5.763614 -3.761688 0.067834 32.057548 5.337474 -3.767032 -5.679787 -11.675931 37.890705 -0.778476 -23.991808 32.712907 -1.171463 -6.867185 19.323673 0.850777 -0.099507 4.464359 1.866440 -0.451312 -0.309556 3.911196 0.211848 -2.552740 -7.025183 -3.571715 -9.209989 4.049265 -4.512793 23.465283 2.696589 -2.617581 12.041837 -3.813668 3.518303 -3.126119 -70.818444 39.210514 24.571331 71.686206 -61.852786 -50.209467 0.202850 -2.032990 -9.859074 22.493043 25.015434 10.804134 -7.125000 0.000000 0.000000 -8.605682 58.859234 -2.925376 1.941021 -2.756051 -1.655650 61.279453 -42.610062 43.386711 -79.099869 59.345121 -56.294200 1.108878 -0.404900 -4.066657 -7.709631 14.341654 -2.260246 7.125000 0.000000 0.000000 12.688238 -15.261445 9.129874
0.616006 22.452779 -6.200340 -0.828364 4.109831 2.809791 3.870129 3.039918 1.082433 -25.990104 -4.813110 -10.161806 5.915090 13.064951 43.049616 3.680796 4.463545 39.336268 0.008886 0.523606 1.438951 -5.770014 -3.767303 0.085871 31.936604 5.237253 -4.438688 -5.622922 -11.649125 37.785392 -0.679204 -23.405279 31.941297 -1.122467 -6.729985 18.917778 0.752452 -0.102796 4.564639 1.865291 -0.455906 -0.320377 3.977372 0.212546 -2.630075 -7.137982 -3.605969 -9.104418 4.171417 -4.571057 23.737039 2.762425 -2.647392 12.152950 -3.828908 3.538096 -3.149030 -70.698966 39.472021 23.941726 70.007499 -61.501037 -48.862647 0.170431 -2.004769 -9.769308 21.878853 23.399028 9.912208 -7.125000 0.000000 0.000000 -8.482471 57.023098 -2.522890 1.956344 -2.755027 -1.648506 60.876877 -42.380924 43.536849 -77.658550 59.121796 -55.037360 1.079608 -0.370802 -5.019657 -7.416683 13.961202 -2.117210 7.125000 0.000000 0.000000 12.921454 -15.671052 9.190364
0.611046 22.522708 -6.054542 -0.679075 3.953402 2.690060 3.882405 3.033835 1.075479 -26.360241 -4.602346 -10.699722 5.899838 13.086500 43.119272 3.397021 4.309084 37.937548 0.001331 0.015225 0.041826 -5.770476 -3.770396 0.101663 31.643780 5.177769 -5.109406 -5.553673 -11.611700 37.651167 -0.626480 -22.510791 31.175460 -1.093661 -6.644610 18.666987 0.575388 -0.035282 4.652891 1.822775 -0.371033 -0.297817 3.995124 0.255478 -2.644166 -7.151077 -3.548557 -8.884488 4.233849 -4.510907 23.806250 2.802654 -2.619946 12.127782 -3.850235 3.558181 -3.149590 -70.353291 39.616356 23.572624 68.324239 -61.131159 -47.481056 0.121579 -1.995941 -9.616489 21.760091 22.064179 9.387639 -7.125000 0.000000 0.000000 -7.956308 55.610585 -2.081608 1.971907 -2.764491 -1.646187 60.736851 -42.186357 43.392708 -76.223486 58.888864 -53.772277 1.054984 -0.343531 -5.661057 -7.214666 13.681454 -2.017812 7.125000 0.000000 0.000000 13.087097 -15.974583 9.226465
0.606530 22.584589 -5.911394 -0.616273 3.820749 2.535646 3.890447 3.029019 1.064323 -26.617601 -4.394347 -11.197974 5.852542 13.071732 43.023950 3.158412 4.290221 36.748293 0.001896 -0.278087 -0.764008 -5.771371 -3.771884 0.120372 31.449767 5.182858 -5.745493 -5.473026 -11.562391 37.474169 -0.580402 -21.535892 30.382397 -0.981762 -6.300563 17.661048 0.516122 0.048968 4.732312 1.775753 -0.258074 -0.249824 3.932906 0.309600 -2.615355 -7.077648 -3.551030 -8.493623 4.241183 -4.554709 23.819051 2.793878 -2.636213 12.036515 -3.878608 3.580984 -3.132960 -69.926394 39.586042 23.358579 66.467242 -60.686610 -45.901390 0.077354 -2.014496 -9.492851 22.035450 21.423267 9.301414 -7.125000 0.000000 0.000000 -7.382486 55.020756 -1.832280 1.991030 -2.779354 -1.643964 60.803561 -41.983240 43.065900 -74.691779 58.627723 -52.409501 1.032716 -0.328682 -5.946681 -7.021530 13.546105 -1.943989 7.125000 0.000000 0.000000 13.238560 -16.129720 9.293855
0.598242 22.638817 -5.771645 -0.691294 3.769945 2.327027 3.890725 3.027743 1.054149 -26.671284 -4.251554 -11.647921 5.780340 13.027103 42.781664 2.883975 4.609812 35.425033 0.006043 -0.457156 -1.256148 -5.777907 -3.772449 0.144601 31.453071 5.266498 -6.322647 -5.382143 -11.496367 37.226681 -0.544023 -20.676382 29.698598 -0.797593 -5.684935 15.876959 0.577992 0.078300 4.953518 1.767263 -0.206062 -0.221741 3.890102 0.335092 -2.696060 -7.063430 -3.617895 -8.165662 4.272742 -4.682477 23.996486 2.794803 -2.694703 12.047192 -3.909795 3.603466 -3.122982 -69.596888 39.453240 23.078930 64.288567 -60.129890 -44.071498 -0.017633 -2.001609 -9.289916 22.276315 19.542433 8.726416 -7.125000 0.000000 0.000000 -6.387168 53.086867 -1.296368 2.015868 -2.788063 -1.641352 60.739420 -41.701141 42.898170 -72.999978 58.317451 -50.885899 1.014880 -0.326448 -6.064074 -6.830853 13.598838 -1.899419 7.125000 0.000000 0.000000 13.377100 -16.090406 9.408623
0.586909 22.683875 -5.633566 -0.792218 3.673442 2.126227 3.886035 3.027447 1.045902 -26.654738 -4.118015 -12.077595 5.669741 12.945911 42.400257 2.491712 5.002290 33.467872 0.039261 -1.108997 -3.050979 -5.789599 -3.770914 0.176287 31.507815 5.487861 -6.887177 -5.278906 -11.411194 36.894460 -0.550455 -19.881113 29.249673 -0.597614 -4.944555 13.751358 0.626473 0.104901 5.371872 1.785193 -0.150880 -0.232192 3.918660 0.367407 -2.948181 -7.097012 -3.560186 -8.071115 4.256245 -4.600085 24.264032 2.807926 -2.670292 12.142025 -3.938798 3.614538 -3.123398 -69.307917 39.332536 22.774570 62.133627 -59.549274 -42.265979 -0.132900 -1.969553 -8.781332 22.362677 17.271320 7.909314 -7.125000 0.000000 0.000000 -5.485352 50.678963 -0.769607 2.046191 -2.793812 -1.646748 60.535901 -41.336908 42.815091 -71.230554 57.968810 -49.281117 0.987444 -0.339648 -6.122450 -6.421769 13.737191 -1.810073 7.125000 0.000000 0.000000 13.664858 -15.965796 9.661659
